# xmcd
#
# Track frame offsets:
#	150
#	19535
#	34264
#	50474
#	70475
#	86812
#	104237
#	120657
#	140134
#	156036
#
# Disc length: 2282 seconds
#
# Revision: 2
# Processed by: cddbd v1.5.1PL0 Copyright (c) Steve Scherf et al.
# Submitted via: EZCDDA 4.3.2
#
DISCID=9008e80a
DTITLE=Adela Popescu - Lacrimi de iubire
DYEAR=1900
DGENRE=
TTITLE0=O clipa
TTITLE1=Visele noastre
TTITLE2=Lacrimi de iubire
TTITLE3=O lume de straini
TTITLE4=Din iubire (O lacrima)
TTITLE5=Numai pentru tine
TTITLE6=Poveste
TTITLE7=No me ensenaste
TTITLE8=Lacrimi de iubire (Retrosonic remix)
TTITLE9=Visele noastre (Remix)
EXTD=
EXTT0=
EXTT1=
EXTT2=
EXTT3=
EXTT4=
EXTT5=
EXTT6=
EXTT7=
EXTT8=
EXTT9=
PLAYORDER=
